<mxfile host="app.diagrams.net" modified="2021-09-07T14:53:35.586Z" agent="5.0 (Windows NT 10.0; Win64; x64) AppleWebKit/537.36 (KHTML, like Gecko) Chrome/84.0.4147.89 Safari/537.36" etag="qwTeGosxiyTioKxC5Qnc" version="15.1.0" type="github">
  <diagram id="C5RBs43oDa-KdzZeNtuy" name="Page-1">
    <mxGraphModel dx="985" dy="637" grid="1" gridSize="10" guides="1" tooltips="1" connect="1" arrows="1" fold="1" page="1" pageScale="1" pageWidth="827" pageHeight="1169" math="0" shadow="0">
      <root>
        <mxCell id="WIyWlLk6GJQsqaUBKTNV-0" />
        <mxCell id="WIyWlLk6GJQsqaUBKTNV-1" parent="WIyWlLk6GJQsqaUBKTNV-0" />
        <mxCell id="WIyWlLk6GJQsqaUBKTNV-2" value="" style="rounded=0;html=1;jettySize=auto;orthogonalLoop=1;fontSize=11;endArrow=block;endFill=1;endSize=8;strokeWidth=1;shadow=0;labelBackgroundColor=none;edgeStyle=orthogonalEdgeStyle;" parent="WIyWlLk6GJQsqaUBKTNV-1" source="WIyWlLk6GJQsqaUBKTNV-3" edge="1">
          <mxGeometry relative="1" as="geometry">
            <mxPoint x="195" y="130" as="targetPoint" />
          </mxGeometry>
        </mxCell>
        <mxCell id="WIyWlLk6GJQsqaUBKTNV-3" value="APP 실행" style="rounded=1;whiteSpace=wrap;html=1;fontSize=12;glass=0;strokeWidth=1;shadow=0;fillColor=#e51400;strokeColor=#B20000;fontColor=#ffffff;" parent="WIyWlLk6GJQsqaUBKTNV-1" vertex="1">
          <mxGeometry x="160" y="30" width="70" height="20" as="geometry" />
        </mxCell>
        <mxCell id="0p1mIP0N4EkjdRxn-cH5-3" value="이름, 군번 입력" style="rounded=0;whiteSpace=wrap;html=1;fillColor=#ffe6cc;strokeColor=#d79b00;" parent="WIyWlLk6GJQsqaUBKTNV-1" vertex="1">
          <mxGeometry x="135" y="130" width="120" height="30" as="geometry" />
        </mxCell>
        <mxCell id="0p1mIP0N4EkjdRxn-cH5-7" value="" style="rounded=0;html=1;jettySize=auto;orthogonalLoop=1;fontSize=11;endArrow=block;endFill=1;endSize=8;strokeWidth=1;shadow=0;labelBackgroundColor=none;edgeStyle=orthogonalEdgeStyle;" parent="WIyWlLk6GJQsqaUBKTNV-1" edge="1">
          <mxGeometry relative="1" as="geometry">
            <mxPoint x="194.5" y="160" as="sourcePoint" />
            <mxPoint x="194.5" y="190" as="targetPoint" />
            <Array as="points">
              <mxPoint x="194.5" y="180" />
              <mxPoint x="194.5" y="180" />
            </Array>
          </mxGeometry>
        </mxCell>
        <mxCell id="0p1mIP0N4EkjdRxn-cH5-18" value="" style="edgeStyle=orthogonalEdgeStyle;rounded=0;orthogonalLoop=1;jettySize=auto;html=1;endArrow=block;endFill=1;" parent="WIyWlLk6GJQsqaUBKTNV-1" target="0p1mIP0N4EkjdRxn-cH5-17" edge="1">
          <mxGeometry relative="1" as="geometry">
            <mxPoint x="195" y="340" as="sourcePoint" />
            <Array as="points">
              <mxPoint x="195" y="350" />
              <mxPoint x="195" y="350" />
            </Array>
          </mxGeometry>
        </mxCell>
        <mxCell id="0p1mIP0N4EkjdRxn-cH5-17" value="보안기능 실행" style="whiteSpace=wrap;html=1;rounded=0;fillColor=#dae8fc;strokeColor=#6c8ebf;" parent="WIyWlLk6GJQsqaUBKTNV-1" vertex="1">
          <mxGeometry x="135" y="420" width="120" height="30" as="geometry" />
        </mxCell>
        <mxCell id="0p1mIP0N4EkjdRxn-cH5-33" value="" style="edgeStyle=none;rounded=0;orthogonalLoop=1;jettySize=auto;html=1;endArrow=block;endFill=1;endSize=6;strokeWidth=1;" parent="WIyWlLk6GJQsqaUBKTNV-1" source="0p1mIP0N4EkjdRxn-cH5-20" target="0p1mIP0N4EkjdRxn-cH5-32" edge="1">
          <mxGeometry relative="1" as="geometry" />
        </mxCell>
        <mxCell id="0p1mIP0N4EkjdRxn-cH5-20" value="재가입 사유 기입" style="whiteSpace=wrap;html=1;rounded=0;fillColor=#ffe6cc;strokeColor=#d79b00;" parent="WIyWlLk6GJQsqaUBKTNV-1" vertex="1">
          <mxGeometry x="297" y="270" width="120" height="30" as="geometry" />
        </mxCell>
        <mxCell id="0p1mIP0N4EkjdRxn-cH5-27" value="승인 대기" style="rhombus;whiteSpace=wrap;html=1;fillColor=#ffe6cc;strokeColor=#d79b00;" parent="WIyWlLk6GJQsqaUBKTNV-1" vertex="1">
          <mxGeometry x="130" y="350" width="130" height="30" as="geometry" />
        </mxCell>
        <mxCell id="0p1mIP0N4EkjdRxn-cH5-35" value="" style="edgeStyle=none;rounded=0;orthogonalLoop=1;jettySize=auto;html=1;endArrow=block;endFill=1;endSize=6;strokeWidth=1;" parent="WIyWlLk6GJQsqaUBKTNV-1" edge="1">
          <mxGeometry relative="1" as="geometry">
            <mxPoint x="196" y="80" as="targetPoint" />
            <Array as="points">
              <mxPoint x="596" y="285" />
              <mxPoint x="596" y="80" />
            </Array>
            <mxPoint x="556.0000000000001" y="285" as="sourcePoint" />
          </mxGeometry>
        </mxCell>
        <mxCell id="0p1mIP0N4EkjdRxn-cH5-44" value="" style="edgeStyle=none;rounded=0;orthogonalLoop=1;jettySize=auto;html=1;endArrow=block;endFill=1;endSize=6;strokeWidth=1;entryX=1;entryY=0.5;entryDx=0;entryDy=0;exitX=0.5;exitY=1;exitDx=0;exitDy=0;" parent="WIyWlLk6GJQsqaUBKTNV-1" source="0p1mIP0N4EkjdRxn-cH5-32" edge="1">
          <mxGeometry relative="1" as="geometry">
            <mxPoint x="254" y="435" as="targetPoint" />
            <Array as="points">
              <mxPoint x="506" y="435" />
            </Array>
            <mxPoint x="504.19927536231876" y="299.945652173913" as="sourcePoint" />
          </mxGeometry>
        </mxCell>
        <mxCell id="0p1mIP0N4EkjdRxn-cH5-32" value="승인 반려" style="rhombus;whiteSpace=wrap;html=1;rounded=0;fillColor=#ffe6cc;strokeColor=#d79b00;" parent="WIyWlLk6GJQsqaUBKTNV-1" vertex="1">
          <mxGeometry x="450" y="270" width="110" height="30" as="geometry" />
        </mxCell>
        <mxCell id="0p1mIP0N4EkjdRxn-cH5-36" value="No" style="text;html=1;strokeColor=none;fillColor=none;align=center;verticalAlign=middle;whiteSpace=wrap;rounded=0;" parent="WIyWlLk6GJQsqaUBKTNV-1" vertex="1">
          <mxGeometry x="560" y="260" width="40" height="20" as="geometry" />
        </mxCell>
        <mxCell id="0p1mIP0N4EkjdRxn-cH5-39" value="" style="edgeStyle=none;rounded=0;orthogonalLoop=1;jettySize=auto;html=1;endArrow=block;endFill=1;endSize=6;strokeWidth=1;exitX=0;exitY=0.5;exitDx=0;exitDy=0;" parent="WIyWlLk6GJQsqaUBKTNV-1" source="0p1mIP0N4EkjdRxn-cH5-27" edge="1">
          <mxGeometry relative="1" as="geometry">
            <mxPoint x="470" y="460" as="sourcePoint" />
            <mxPoint x="195" y="80" as="targetPoint" />
            <Array as="points">
              <mxPoint x="90" y="365" />
              <mxPoint x="90" y="80" />
            </Array>
          </mxGeometry>
        </mxCell>
        <mxCell id="0p1mIP0N4EkjdRxn-cH5-40" value="No" style="text;html=1;strokeColor=none;fillColor=none;align=center;verticalAlign=middle;whiteSpace=wrap;rounded=0;" parent="WIyWlLk6GJQsqaUBKTNV-1" vertex="1">
          <mxGeometry x="90" y="340" width="40" height="20" as="geometry" />
        </mxCell>
        <mxCell id="0p1mIP0N4EkjdRxn-cH5-42" value="Yes" style="text;html=1;strokeColor=none;fillColor=none;align=center;verticalAlign=middle;whiteSpace=wrap;rounded=0;" parent="WIyWlLk6GJQsqaUBKTNV-1" vertex="1">
          <mxGeometry x="190" y="385" width="40" height="20" as="geometry" />
        </mxCell>
        <mxCell id="0p1mIP0N4EkjdRxn-cH5-45" value="Yes" style="text;html=1;strokeColor=none;fillColor=none;align=center;verticalAlign=middle;whiteSpace=wrap;rounded=0;" parent="WIyWlLk6GJQsqaUBKTNV-1" vertex="1">
          <mxGeometry x="500" y="310" width="40" height="20" as="geometry" />
        </mxCell>
        <mxCell id="0p1mIP0N4EkjdRxn-cH5-46" value="" style="edgeStyle=none;rounded=0;orthogonalLoop=1;jettySize=auto;html=1;endArrow=block;endFill=1;endSize=6;strokeWidth=1;" parent="WIyWlLk6GJQsqaUBKTNV-1" edge="1">
          <mxGeometry relative="1" as="geometry">
            <mxPoint x="260" y="284.8000000000001" as="sourcePoint" />
            <mxPoint x="296" y="284.8000000000001" as="targetPoint" />
          </mxGeometry>
        </mxCell>
        <mxCell id="0p1mIP0N4EkjdRxn-cH5-49" style="edgeStyle=none;rounded=0;orthogonalLoop=1;jettySize=auto;html=1;exitX=0.5;exitY=0;exitDx=0;exitDy=0;endArrow=block;endFill=1;endSize=6;strokeWidth=1;" parent="WIyWlLk6GJQsqaUBKTNV-1" source="0p1mIP0N4EkjdRxn-cH5-27" target="0p1mIP0N4EkjdRxn-cH5-27" edge="1">
          <mxGeometry relative="1" as="geometry" />
        </mxCell>
        <mxCell id="0p1mIP0N4EkjdRxn-cH5-72" value="" style="edgeStyle=orthogonalEdgeStyle;rounded=0;orthogonalLoop=1;jettySize=auto;html=1;endArrow=block;endFill=1;" parent="WIyWlLk6GJQsqaUBKTNV-1" edge="1">
          <mxGeometry relative="1" as="geometry">
            <mxPoint x="195" y="300" as="sourcePoint" />
            <mxPoint x="194.8" y="350" as="targetPoint" />
            <Array as="points">
              <mxPoint x="194.8" y="280" />
              <mxPoint x="194.8" y="280" />
            </Array>
          </mxGeometry>
        </mxCell>
        <mxCell id="WIyWlLk6GJQsqaUBKTNV-10" value="&lt;font style=&quot;font-size: 9px&quot;&gt;이미&lt;br&gt;&amp;nbsp;가입되어 있는&lt;br&gt;사용자인가?&lt;/font&gt;" style="rhombus;whiteSpace=wrap;html=1;shadow=0;fontFamily=Helvetica;fontSize=12;align=center;strokeWidth=1;spacing=6;spacingTop=-4;fillColor=#ffe6cc;strokeColor=#d79b00;" parent="WIyWlLk6GJQsqaUBKTNV-1" vertex="1">
          <mxGeometry x="130" y="250" width="130" height="70" as="geometry" />
        </mxCell>
        <mxCell id="1sxqxxpewjTAF2TqhEkn-1" value="보안 서약서 작성" style="rounded=0;whiteSpace=wrap;html=1;fillColor=#ffe6cc;strokeColor=#d79b00;" vertex="1" parent="WIyWlLk6GJQsqaUBKTNV-1">
          <mxGeometry x="135" y="190" width="120" height="30" as="geometry" />
        </mxCell>
        <mxCell id="1sxqxxpewjTAF2TqhEkn-2" value="" style="rounded=0;html=1;jettySize=auto;orthogonalLoop=1;fontSize=11;endArrow=block;endFill=1;endSize=8;strokeWidth=1;shadow=0;labelBackgroundColor=none;edgeStyle=orthogonalEdgeStyle;" edge="1" parent="WIyWlLk6GJQsqaUBKTNV-1">
          <mxGeometry relative="1" as="geometry">
            <mxPoint x="194.83" y="220" as="sourcePoint" />
            <mxPoint x="194.83" y="250" as="targetPoint" />
            <Array as="points">
              <mxPoint x="194.83" y="240" />
              <mxPoint x="194.83" y="240" />
            </Array>
          </mxGeometry>
        </mxCell>
        <mxCell id="1sxqxxpewjTAF2TqhEkn-5" value="" style="edgeStyle=orthogonalEdgeStyle;rounded=0;orthogonalLoop=1;jettySize=auto;html=1;endArrow=block;endFill=1;" edge="1" parent="WIyWlLk6GJQsqaUBKTNV-1">
          <mxGeometry relative="1" as="geometry">
            <mxPoint x="194.79999999999998" y="449.9999999999999" as="sourcePoint" />
            <Array as="points">
              <mxPoint x="195.14" y="465" />
            </Array>
            <mxPoint x="195.14" y="490" as="targetPoint" />
          </mxGeometry>
        </mxCell>
        <mxCell id="1sxqxxpewjTAF2TqhEkn-7" value="사진 촬영 모드를&lt;br style=&quot;font-size: 11px;&quot;&gt;실행하는가?" style="rhombus;whiteSpace=wrap;html=1;fillColor=#dae8fc;strokeColor=#6c8ebf;fontSize=11;" vertex="1" parent="WIyWlLk6GJQsqaUBKTNV-1">
          <mxGeometry x="130" y="490" width="130" height="70" as="geometry" />
        </mxCell>
        <mxCell id="1sxqxxpewjTAF2TqhEkn-8" value="" style="edgeStyle=orthogonalEdgeStyle;rounded=0;orthogonalLoop=1;jettySize=auto;html=1;endArrow=block;endFill=1;" edge="1" parent="WIyWlLk6GJQsqaUBKTNV-1">
          <mxGeometry relative="1" as="geometry">
            <mxPoint x="260" y="524.9999999999999" as="sourcePoint" />
            <Array as="points">
              <mxPoint x="260" y="525" />
            </Array>
            <mxPoint x="310" y="525" as="targetPoint" />
          </mxGeometry>
        </mxCell>
        <mxCell id="1sxqxxpewjTAF2TqhEkn-9" value="" style="edgeStyle=orthogonalEdgeStyle;rounded=0;orthogonalLoop=1;jettySize=auto;html=1;endArrow=block;endFill=1;" edge="1" parent="WIyWlLk6GJQsqaUBKTNV-1">
          <mxGeometry relative="1" as="geometry">
            <mxPoint x="194.82999999999996" y="560" as="sourcePoint" />
            <Array as="points">
              <mxPoint x="195.17" y="575" />
            </Array>
            <mxPoint x="195.16999999999987" y="600" as="targetPoint" />
          </mxGeometry>
        </mxCell>
        <mxCell id="1sxqxxpewjTAF2TqhEkn-10" value="Yes" style="text;html=1;strokeColor=none;fillColor=none;align=center;verticalAlign=middle;whiteSpace=wrap;rounded=0;" vertex="1" parent="WIyWlLk6GJQsqaUBKTNV-1">
          <mxGeometry x="190" y="565" width="40" height="20" as="geometry" />
        </mxCell>
        <mxCell id="1sxqxxpewjTAF2TqhEkn-11" value="Yes" style="text;html=1;strokeColor=none;fillColor=none;align=center;verticalAlign=middle;whiteSpace=wrap;rounded=0;" vertex="1" parent="WIyWlLk6GJQsqaUBKTNV-1">
          <mxGeometry x="254" y="266" width="40" height="20" as="geometry" />
        </mxCell>
        <mxCell id="1sxqxxpewjTAF2TqhEkn-12" value="No" style="text;html=1;strokeColor=none;fillColor=none;align=center;verticalAlign=middle;whiteSpace=wrap;rounded=0;" vertex="1" parent="WIyWlLk6GJQsqaUBKTNV-1">
          <mxGeometry x="191" y="320" width="40" height="20" as="geometry" />
        </mxCell>
      </root>
    </mxGraphModel>
  </diagram>
</mxfile>
